<svg xmlns="http://www.w3.org/2000/svg"
shape-rendering="geometricPrecision"
width="4000" height="4000" viewBox="0 0 1024 1024">
  <metadata>null</metadata>

<path d="
M 424.009 357.286
C 415.439 360.365 407.527 364.761 399.72 369.414
C 368.309 388.134 344.259 418.213 333.221 453.206
C 330.26 462.595 328.166 472.293 326.894 482.054
C 326.268 486.853 326.8 492.415 325.42 497.039
C 318.089 462.464 312.044 427.636 305.747 392.846
C 303.134 378.411 300.29 364.012 297.844 349.547
C 295.928 338.225 293.891 326.894 291.756 315.611
C 290.467 308.799 288.646 301.472 292.204 295.001
C 294.744 290.383 298.722 286.682 303.763 284.95
C 307.331 283.725 311.152 283.303 314.823 282.487
C 319.988 281.34 325.195 280.369 330.376 279.287
C 364.342 272.192 398.245 264.78 432.23 257.768
C 437.945 256.589 443.693 255.483 449.377 254.163
C 458.058 252.147 466.658 250.017 474.378 255.948
C 482.093 261.877 482.754 272.053 484.466 280.899
C 487.95 298.9 491.571 316.918 495.361 334.852
C 475.808 333.421 456.768 335.38 437.834 340.487
C 432.998 341.792 427.864 343.145 423.227 345.039
C 421.074 345.917 419.443 347.54 418.914 349.856
C 418.144 353.228 420.308 357.251 424.009 357.286 Z
M 323.005 331.616
C 320.6 352.298 338.798 370.808 359.006 371.024
C 364.549 371.083 370.109 369.56 375.103 367.242
C 377.187 366.275 379.006 364.801 381.095 363.882
C 382.154 364.019 383.386 365.246 384.2 365.917
C 385.974 367.38 387.818 369.001 390.215 369.218
C 394.222 369.581 397.114 364.935 395.64 361.353
C 394.402 358.345 390.886 356.838 388.453 354.95
C 389.456 351.988 391.554 349.36 392.628 346.354
C 395.683 337.808 395.943 328.189 392.392 319.725
C 385.992 304.47 369.318 295.314 352.98 298.367
C 346.901 299.503 341.282 302.29 336.455 306.115
C 331.312 310.191 326.975 316.226 324.901 322.452
C 323.886 325.499 323.56 328.487 323.005 331.616 Z
M 409.479 318.621
C 409.197 324.849 416.636 323.338 420.33 322.51
C 431.309 320.046 442.317 317.703 453.297 315.241
C 457.37 314.327 463.456 314.247 463.373 308.684
C 463.363 308.033 463.255 307.381 463.001 306.779
C 461.05 302.158 456.109 304.128 452.483 304.881
C 441.535 307.156 430.662 309.766 419.738 312.145
C 415.748 313.015 409.718 313.341 409.479 318.621 Z"
opacity="1" fill="rgb(201,14,222)" fill-rule="evenodd" />
<path d="
M 325.42 497.039
C 326.8 492.415 326.268 486.853 326.894 482.054
C 328.166 472.293 330.26 462.595 333.221 453.206
C 344.259 418.213 368.309 388.134 399.72 369.414
C 407.527 364.761 415.439 360.365 424.009 357.286
C 426.286 357.044 428.548 355.302 430.717 354.535
C 435.687 352.777 440.864 351.223 446.01 350.08
C 465.077 345.845 484.791 344.517 504.19 347.145
C 560.779 354.809 609.177 395.231 628.247 448.802
C 635.601 469.459 638.276 492.119 636.547 513.965
C 634.682 537.526 627.354 560.102 615.789 580.661
C 612.471 586.56 608.746 592.45 604.527 597.749
C 602.865 599.836 601.263 601.97 599.622 604.075
C 598.91 604.988 597.872 605.906 597.554 607.028
C 599.416 608.612 600.866 611.023 602.421 612.918
C 606.006 617.287 609.685 621.589 613.154 626.051
C 615.039 628.476 617.825 631.154 618.225 634.346
C 618.681 637.992 615.998 640.519 613.583 642.819
C 610.812 645.458 607.814 647.857 605.027 650.48
C 602.24 653.105 599.529 655.959 596.448 658.244
C 593.948 660.099 591.359 662.083 588.071 661.733
C 583.784 661.277 580.694 657.068 577.841 654.208
C 571.154 647.503 563.761 641.182 557.488 634.107
C 555.508 634.11 552.686 636.483 550.922 637.432
C 546.21 639.964 541.312 642.252 536.315 644.165
C 521.164 649.966 504.571 653.53 488.31 653.733
C 469.551 653.968 451.05 651.972 433.125 646.186
C 390.903 632.555 354.393 601.046 337.021 559.862
C 331.103 545.833 327.96 531.41 325.986 516.377
C 325.429 512.129 325.336 507.73 325.364 503.453
C 325.378 501.381 325.779 499.079 325.42 497.039 Z
M 388.919 492.618
C 385.411 533.117 409.396 572.451 447.628 586.823
C 460.03 591.486 473.321 593.228 486.503 592.455
C 495.19 591.945 503.853 590.274 512.068 587.377
C 514.703 586.448 518.017 585.524 520.385 584.04
C 519.878 582.865 518.494 581.818 517.811 580.67
C 515.505 576.792 514.39 572.475 514.782 567.961
C 515.655 557.907 526.826 552.059 535.963 554.841
C 542.051 556.694 545.62 560.871 549.817 565.277
C 550.197 565.199 550.459 564.496 550.67 564.22
C 551.466 563.18 552.354 562.178 553.21 561.186
C 557.403 556.329 560.796 550.658 563.66 544.931
C 575.913 520.429 578.138 491.155 568.019 465.455
C 562.719 451.994 554.335 439.322 543.353 429.826
C 533.419 421.237 521.897 414.565 509.305 410.713
C 481.49 402.205 449.725 407.505 426.466 425.086
C 410.667 437.028 398.794 453.683 392.823 472.576
C 390.729 479.201 390.247 485.882 388.919 492.618 Z"
opacity="1" fill="rgb(78,12,136)" fill-rule="evenodd" />
<path d="
M 334.933 331.098
C 335.929 326.111 337.458 321.654 340.946 317.811
C 349.559 308.323 363.901 306.561 374.059 314.649
C 381.099 320.254 384.439 329.809 382.525 338.558
C 381.914 341.354 380.624 345.028 378.507 347.067
C 375.405 345.718 373.476 341.898 370.025 341.206
C 365.636 340.326 361.364 345.279 363.776 349.425
C 365.329 352.095 368.923 353.066 370.373 355.625
C 369.755 356.533 368.118 357.101 367.133 357.504
C 363.704 358.909 359.886 359.221 356.233 358.865
C 342.635 357.54 333.416 344.292 334.933 331.098 Z"
opacity="1" fill="rgb(206,14,222)" fill-rule="evenodd" />
<path d="
M 416.928 510.598
C 418.698 500.861 428.962 493.639 438.465 498.987
C 441.688 500.801 443.962 504.023 446.499 506.628
C 451.656 511.925 456.751 517.396 462.137 522.453
C 463.656 521.608 464.884 519.825 466.097 518.593
C 468.74 515.907 471.36 513.203 473.975 510.491
C 482.347 501.807 490.705 493.111 499.127 484.474
C 504.201 479.271 509.38 474.161 514.388 468.893
C 517.371 465.755 520.373 462.058 524.55 460.522
C 534.961 456.693 545.364 465.957 543.922 476.526
C 543.327 480.887 540.35 483.806 537.391 486.788
C 534.019 490.186 530.698 493.636 527.34 497.048
C 512.65 511.97 498.474 527.378 483.941 542.453
C 478.27 548.335 472.377 557.456 463.477 558.107
C 454.9 558.734 449.882 552.237 444.663 546.54
C 442.319 543.982 439.805 541.577 437.431 539.044
C 433.77 535.137 430.045 531.27 426.237 527.506
C 421.244 522.572 416.322 518.234 416.928 510.598 Z"
opacity="1" fill="rgb(29,222,228)" fill-rule="evenodd" />
<path d="
M 647.773 516.983
C 651.298 513.454 652.399 507.901 653.812 503.282
C 656.534 494.386 659.139 485.396 662.176 476.601
C 663.313 473.308 664.175 469.919 665.38 466.648
C 665.643 465.936 665.969 463.883 666.875 464.043
C 672.515 466.762 677.885 470.915 683.225 474.227
C 695.066 481.569 706.874 488.966 718.654 496.405
C 723.065 499.19 728.609 501.604 732.087 505.57
C 734.46 508.276 735.794 511.708 736.404 515.221
C 737.782 523.147 733.19 529.144 729.114 535.425
C 722.213 546.057 715.55 556.843 708.572 567.426
C 696.877 585.164 685.957 603.408 674.292 621.164
C 657.165 647.234 640.655 673.775 624.03 700.17
C 617.738 710.161 611.132 719.96 604.913 729.995
C 602.303 734.208 599.88 739.188 596.248 742.614
C 593.174 745.514 588.767 747.237 584.627 747.8
C 578.074 748.691 573.182 745.439 567.871 742.152
C 562.954 739.108 558.009 736.071 552.996 733.185
C 526.767 718.083 500.98 702.159 474.934 686.74
C 470.394 684.052 465.873 681.338 461.288 678.727
C 457.394 676.51 453.259 674.587 450.709 670.73
C 449.362 668.694 448.46 666.417 447.864 664.056
C 447.734 663.545 447.198 662.516 447.354 661.997
C 447.643 661.037 449.745 661.947 450.574 662.137
C 454.133 662.954 457.816 663.493 461.443 663.905
C 470.987 664.989 480.528 665.472 490.132 665.101
C 505.202 664.519 520.473 661.799 534.724 656.854
C 539.696 655.129 544.539 653.116 549.332 650.949
C 551.289 650.065 553.544 648.22 555.686 648.062
C 561.014 653.052 566.098 658.359 571.245 663.539
C 574.816 667.133 578.15 670.936 583.19 672.376
C 594.188 675.518 601.839 668.477 609.297 661.554
C 612.231 658.831 615.333 656.282 618.285 653.577
C 623.721 648.593 629.542 643.613 629.662 635.606
C 629.794 626.752 622.668 620.055 617.292 613.772
C 615.687 611.898 612.684 609.443 611.866 607.117
C 612.492 605.64 613.713 604.362 614.641 603.059
C 616.253 600.795 617.802 598.486 619.385 596.202
C 623.943 589.623 627.947 582.598 631.393 575.373
C 636.748 564.15 641.166 552.392 643.968 540.262
C 645.755 532.525 646.431 524.762 647.773 516.983 Z
M 654.803 527.008
C 653.509 530.76 656.714 533.144 659.537 534.775
C 667.347 539.289 674.543 544.815 682.254 549.443
C 684.783 550.961 688.722 550.844 690.037 547.753
C 691.683 543.882 688.424 541.213 685.492 539.41
C 680.012 536.04 674.598 532.548 669.166 529.1
C 666.726 527.552 664.404 525.612 661.838 524.288
C 659.227 522.94 655.793 524.141 654.803 527.008 Z
M 661.901 509.548
C 660.281 513.822 664.749 515.931 667.653 517.839
C 675.762 523.167 684.068 528.259 692.251 533.478
C 694.99 535.226 699.01 535.898 700.614 532.249
C 702.466 528.036 698.064 525.592 695.152 523.691
C 688.712 519.485 682.214 515.344 675.713 511.232
C 673.434 509.791 671.271 507.98 668.849 506.786
C 666.293 505.527 662.925 506.845 661.901 509.548 Z"
opacity="1" fill="rgb(20,7,79)" fill-rule="evenodd" />
<path d="
M 666.875 464.043
C 665.969 463.883 665.643 465.936 665.38 466.648
C 664.175 469.919 663.313 473.308 662.176 476.601
C 659.139 485.396 656.534 494.386 653.812 503.282
C 652.399 507.901 651.298 513.454 647.773 516.983
C 648.928 507.615 648.45 497.649 647.781 488.264
C 643.635 430.091 607.755 375.984 554.731 350.931
C 542.95 345.364 530.992 341.156 518.273 338.298
C 512.954 337.103 506.795 335.373 501.314 335.562
C 507.556 317.261 513.86 298.652 518.564 279.882
C 520.811 270.918 522.396 259.779 531.091 254.745
C 539.122 250.096 546.606 252.496 554.802 255.062
C 560.593 256.875 566.496 258.333 572.295 260.122
C 605.45 270.349 639.031 279.219 672.274 289.161
C 677.433 290.704 682.612 292.223 687.791 293.697
C 691.152 294.654 694.724 295.301 697.898 296.804
C 703.231 299.331 707.191 304.177 708.759 309.843
C 710.37 315.662 708.587 320.953 706.949 326.514
C 704.991 333.161 703.218 339.872 701.175 346.493
C 692.934 373.188 685.599 400.176 677.597 426.942
C 674.901 435.959 672.142 444.957 669.538 454
C 668.843 456.412 668.084 458.804 667.323 461.196
C 667.008 462.188 666.428 463.027 666.875 464.043 Z
M 534.38 307.545
C 532.54 312.836 538.038 314.246 541.742 315.457
C 552.066 318.831 562.396 322.203 572.698 325.652
C 576.276 326.849 582.567 329.918 584.593 324.71
C 586.636 319.458 580.923 317.753 577.229 316.502
C 566.858 312.988 556.471 309.499 546.07 306.073
C 542.253 304.816 536.295 302.034 534.38 307.545 Z
M 595.968 342.625
C 595.599 347.487 596.385 352.657 598.113 357.203
C 601.605 366.385 608.293 374.4 617.229 378.672
C 634.509 386.934 656.454 379.723 665.53 362.915
C 668.016 358.312 669.583 353.185 670.024 347.968
C 670.454 342.878 669.506 337.729 668.084 332.898
C 667.825 332.019 668.066 331.072 667.686 330.215
C 664.452 322.934 659.212 316.313 652.362 312.151
C 639.345 304.244 622.539 305.572 610.575 314.76
C 606.526 317.87 603.172 321.684 600.647 326.127
C 597.772 331.187 596.406 336.861 595.968 342.625 Z"
opacity="1" fill="rgb(26,217,224)" fill-rule="evenodd" />
<path d="
M 607.434 340.09
C 610.228 326.658 621.523 317.007 635.619 318.208
C 641.908 318.744 647.586 321.707 651.892 326.27
C 652.911 327.349 655.4 329.83 655.01 331.425
C 648.192 334.778 642.204 340.075 635.984 344.433
C 634.011 345.815 632.093 347.581 629.917 348.622
C 628.461 346.647 626.947 344.735 625.605 342.679
C 624.505 340.994 623.42 338.773 621.416 337.999
C 619.049 337.084 615.996 339.441 615.76 341.813
C 615.572 343.709 616.949 345.184 617.963 346.628
C 620.085 349.651 622.272 352.536 624.138 355.729
C 624.996 357.198 625.982 358.698 627.757 359.068
C 630.529 359.648 632.778 357.599 634.887 356.148
C 640.325 352.407 645.709 348.507 651.017 344.588
C 652.664 343.372 654.245 342.012 655.997 340.946
C 656.436 340.679 657.371 339.818 657.826 339.887
C 662.611 353.907 650.916 368.636 637.176 370.696
C 624.515 372.594 612.324 364.957 608.459 352.815
C 607.173 348.776 606.742 344.285 607.434 340.09 Z"
opacity="1" fill="rgb(28,215,223)" fill-rule="evenodd" />

</svg>