<svg xmlns="http://www.w3.org/2000/svg"
shape-rendering="geometricPrecision"
width="4000" height="4000" viewBox="0 0 1024 1024">
  <metadata>null</metadata>

<path d="
M 261.463 297.61
C 263.643 280.47 275.878 265.167 291.885 258.834
C 302.325 254.703 314.148 253.408 325.095 251.087
C 357.879 244.137 390.68 237.242 423.407 230.03
C 440.173 226.336 457.677 220.125 474.835 224.705
C 482.864 226.848 490.137 231.148 496.13 236.873
C 498.326 238.971 499.925 242.03 502.15 243.949
C 505.964 239.415 509.323 235.026 514.391 231.648
C 524.162 225.136 535.673 222.297 547.355 223.445
C 552.245 223.926 557.001 225.578 561.689 226.959
C 569.825 229.355 577.981 231.684 586.089 234.175
C 616.178 243.42 646.468 252.028 676.584 261.201
C 683.119 263.192 689.677 265.13 696.25 266.995
C 702.679 268.819 709.118 270.561 714.955 273.914
C 723.207 278.654 729.515 286.042 733.652 294.537
C 737.835 303.128 739.131 313.404 737.729 322.819
C 736.41 331.679 733.046 340.48 730.414 349.018
C 723.188 372.457 716.263 396.007 709.379 419.55
C 706.509 429.365 703.98 439.355 700.784 449.066
C 700.51 449.741 700.28 450.426 700.04 451.114
C 701.497 453.309 705.487 454.765 707.698 456.187
C 714.196 460.364 720.805 464.45 727.456 468.378
C 735.526 473.144 744.861 477.711 751.376 484.568
C 765.226 499.143 767.987 520.255 760.335 538.426
C 757.763 544.45 753.583 549.709 750.112 555.224
C 732.739 581.113 716.812 607.978 699.822 634.12
C 683.829 658.729 667.847 683.416 652.371 708.354
C 645.789 718.962 638.772 729.293 632.208 739.912
C 627.722 747.171 623.6 755.374 617.653 761.567
C 613.383 766.013 607.868 769.547 602.23 771.989
C 590.212 777.195 575.885 777.082 563.826 772.111
C 554.042 768.078 545.128 761.521 536.003 756.213
C 513.123 742.903 490.474 729.124 467.861 715.367
C 460.889 711.125 453.847 706.995 446.87 702.762
C 442.201 699.93 437.336 697.355 433.285 693.638
C 429.122 689.818 425.63 685.376 422.992 680.375
C 422.106 678.695 421.252 676.976 420.599 675.193
C 420.282 674.326 420.175 673.048 419.557 672.362
C 401.278 664.2 383.557 655.834 367.668 643.431
C 341.311 622.858 320.028 595.561 308.022 564.263
C 302.821 550.703 299.679 536.402 297.981 522.01
C 297.462 517.614 297.142 513.177 297.003 508.751
C 296.906 505.69 297.089 502.643 296.587 499.606
C 295.195 491.176 293.323 482.789 291.72 474.395
C 288.042 455.13 284.55 435.829 281.029 416.534
C 276.43 391.332 271.837 366.109 267.035 340.939
C 265.72 334.044 264.378 327.154 263.147 320.242
C 261.804 312.708 260.469 305.291 261.463 297.61 Z
M 264.461 298.608
C 263.469 305.061 264.711 311.539 265.927 317.859
C 266.941 323.131 267.832 328.422 268.9 333.683
C 272.581 351.811 275.605 370.117 278.973 388.307
C 283.425 412.342 287.49 436.484 292.289 460.452
C 294.916 473.574 297.728 486.78 299.867 499.987
C 300.525 504.046 299.972 508.401 300.222 512.515
C 300.725 520.765 301.81 529.033 303.388 537.144
C 308.635 564.099 321.264 588.94 338.25 610.362
C 352.268 628.039 370.408 643.772 390.131 654.772
C 397.197 658.714 404.43 662.146 411.753 665.568
C 414.898 667.038 419.791 667.955 422.263 670.407
C 423.624 673.147 424.386 676.235 425.767 679.015
C 427.471 682.442 429.872 685.535 432.426 688.368
C 437.675 694.188 444.787 697.833 451.418 701.814
C 460.265 707.125 469.159 712.367 477.965 717.746
C 496.703 729.192 515.538 740.56 534.519 751.596
C 544.03 757.125 553.22 763.629 563.162 768.356
C 577.085 774.976 593.505 773.93 606.639 766.029
C 611.095 763.348 615.395 759.809 618.51 755.608
C 621.359 751.768 623.612 747.491 626.178 743.465
C 630.529 736.635 634.842 729.78 639.204 722.956
C 659.327 691.476 679.33 659.911 699.59 628.516
C 714.723 605.066 729.521 581.396 744.638 557.932
C 748.774 551.513 753.633 545.119 756.941 538.23
C 761.2 529.359 762.734 519.955 761.098 510.23
C 759.571 501.148 754.763 492.114 748.1 485.77
C 743.958 481.827 738.977 479.185 734.157 476.198
C 726.058 471.179 717.864 466.297 709.835 461.168
C 707.07 459.402 704.299 457.629 701.47 455.966
C 699.779 454.972 697.518 453.981 696.171 452.554
C 706.539 419.119 716.489 385.465 726.271 351.833
C 731.179 334.959 738.946 317.79 732.621 300.179
C 728.808 289.562 721.211 280.412 711.047 275.372
C 702.855 271.31 693.284 269.424 684.536 266.854
C 651.939 257.276 619.319 247.674 586.834 237.73
C 578.478 235.172 570.064 232.813 561.681 230.348
C 553.825 228.037 546.397 225.692 538.085 226.375
C 527.366 227.256 516.851 232.259 509.336 239.925
C 507.474 241.824 505.767 243.922 504.238 246.098
C 503.602 247.003 502.972 248.837 502.12 249.437
C 499.712 246.34 497.87 242.932 495.065 240.119
C 486.993 232.021 476.386 226.978 464.952 226.186
C 457.698 225.684 451.075 227.317 444.025 228.718
C 433.314 230.846 422.715 233.546 412.009 235.699
C 387.088 240.711 362.322 246.581 337.423 251.717
C 329.526 253.345 321.621 254.938 313.74 256.636
C 307.402 258.001 300.74 258.908 294.631 261.134
C 284.571 264.801 275.635 272.136 270.232 281.413
C 267.013 286.94 265.936 292.528 264.461 298.608 Z"
opacity="1" fill="rgb(7,8,8)" fill-rule="evenodd" stroke="white" stroke-width="6"/>
<path d="
M 423.525 357.292
C 424.624 357.843 421.648 358.109 421.39 358.186
C 419.969 358.612 418.554 359.378 417.203 359.992
C 412.781 362.002 408.568 364.339 404.31 366.678
C 391.599 373.661 379.88 382.369 369.618 392.613
C 362.703 399.516 356.832 407.474 351.504 415.631
C 342.467 429.465 335.364 444.517 331.144 460.533
C 329.061 468.439 327.753 476.569 326.502 484.638
C 325.97 488.07 326.455 491.944 325.231 495.211
C 323.226 488.994 322.304 482.224 321.017 475.814
C 318.824 464.89 316.783 453.935 314.797 442.97
C 309.067 411.348 303.472 379.701 297.615 348.1
C 295.543 336.921 293.653 325.709 291.603 314.526
C 290.318 307.516 288.751 300.45 292.751 293.962
C 295.241 289.926 298.938 286.517 303.456 284.91
C 306.168 283.946 309.027 283.591 311.825 282.98
C 318.029 281.626 324.277 280.46 330.5 279.188
C 364.504 272.236 398.33 264.251 432.401 257.643
C 439.072 256.349 445.704 254.823 452.363 253.462
C 455.047 252.913 457.719 252.088 460.46 251.878
C 465.417 251.498 470.119 253.006 474.119 255.878
C 482.064 261.582 482.902 272.155 484.491 281.008
C 487.722 299.005 492.462 316.776 495.39 334.826
C 488.896 334.633 482.495 334.034 475.974 334.257
C 461.484 334.754 446.881 337.516 433.04 341.789
C 430.717 342.507 428.441 343.364 426.108 344.056
C 424.089 344.655 421.807 345.235 420.42 346.941
C 417.727 350.253 418.476 356.835 423.525 357.292 Z
M 322.984 330.607
C 320.261 351.48 338.425 371.685 359.5 371.036
C 364.913 370.869 369.964 369.388 374.921 367.295
C 376.951 366.438 379.359 364.035 381.517 363.885
C 384.403 365.141 386.585 369.093 389.93 369.225
C 394.002 369.385 397.241 365.146 395.548 361.292
C 394.223 358.277 390.967 356.834 388.359 355.132
C 388.571 353.73 389.771 352.237 390.435 350.968
C 391.658 348.631 392.701 346.227 393.484 343.705
C 396.415 334.258 395.167 322.568 389.7 314.244
C 377.989 296.413 352.882 292.357 336.356 306.044
C 330.626 310.79 326.354 317.16 324.199 324.281
C 323.569 326.362 323.414 328.491 322.984 330.607 Z
M 409.873 317.04
C 409.054 319.493 410.258 322.246 412.696 323.192
C 414.099 323.736 415.926 323.303 417.35 323.024
C 429.367 320.67 441.321 317.843 453.276 315.192
C 457.57 314.241 464.347 314.054 463.323 307.839
C 462.306 301.666 455.771 304.337 451.903 305.063
C 441.423 307.029 431.055 309.567 420.659 311.916
C 417.065 312.729 411.267 312.864 409.873 317.04 Z"
opacity="1" fill="rgb(201,11,219)" fill-rule="evenodd" stroke="white" stroke-width="6"/>
<path d="
M 325.231 495.211
C 326.455 491.944 325.97 488.07 326.502 484.638
C 327.753 476.569 329.061 468.439 331.144 460.533
C 335.364 444.517 342.467 429.465 351.504 415.631
C 356.832 407.474 362.703 399.516 369.618 392.613
C 379.88 382.369 391.599 373.661 404.31 366.678
C 408.568 364.339 412.781 362.002 417.203 359.992
C 418.554 359.378 419.969 358.612 421.39 358.186
C 421.648 358.109 424.624 357.843 423.525 357.292
C 426.027 357.166 428.521 355.216 430.887 354.413
C 436.641 352.461 442.538 350.727 448.488 349.473
C 466.699 345.638 485.484 344.656 503.956 347.081
C 547.947 352.857 588.87 379.365 612.756 416.719
C 630.873 445.052 639.23 479.461 636.562 512.964
C 634.791 535.195 628.674 557.548 617.76 577.095
C 613.851 584.095 609.664 590.931 604.81 597.321
C 603.063 599.621 601.268 601.885 599.537 604.199
C 598.884 605.072 597.831 605.948 597.679 607.047
C 599.748 609.12 601.496 611.684 603.327 613.977
C 606.296 617.697 609.392 621.311 612.365 625.027
C 614.459 627.644 617.618 630.66 618.239 634.091
C 618.943 637.978 615.869 640.564 613.297 642.928
C 607.879 647.909 602.545 653.083 596.899 657.804
C 594.278 659.996 591.168 662.211 587.588 661.58
C 583.303 660.824 580.303 656.636 577.417 653.702
C 570.883 647.058 564.429 640.065 557.475 633.866
C 556.703 633.895 555.996 634.521 555.326 634.887
C 553.621 635.819 551.962 636.84 550.246 637.751
C 544.944 640.567 539.353 642.868 533.76 645.038
C 518.503 650.956 501.617 653.483 485.324 653.686
C 461.619 653.983 437.893 649.369 416.22 639.663
C 378.989 622.989 348.731 591.259 334.435 552.978
C 330.054 541.246 327.669 529.241 326.001 516.874
C 325.033 509.695 326.457 502.273 325.231 495.211 Z
M 388.959 491.115
C 388.204 497.34 388.56 503.818 389.15 510.032
C 392.291 543.136 414.113 573.341 445.154 585.826
C 455.702 590.069 466.908 592.373 478.267 592.619
C 488.801 592.847 498.835 591.102 508.959 588.335
C 511.73 587.578 514.379 586.473 517.038 585.403
C 517.999 585.016 519.609 584.696 520.375 584.017
C 519.849 582.77 518.468 581.618 517.768 580.393
C 515.488 576.4 514.273 571.861 514.95 567.251
C 516.338 557.796 526.473 552.205 535.416 554.637
C 541.429 556.271 545.907 560.404 549.766 565.106
C 550.204 565.226 550.667 564.266 550.924 563.964
C 551.867 562.856 552.819 561.759 553.712 560.61
C 557.441 555.815 560.684 550.781 563.437 545.357
C 575.094 522.39 577.325 496.258 570.132 471.56
C 567.824 463.636 564.122 455.833 559.692 448.875
C 552 436.796 541.038 425.886 528.46 418.907
C 499.319 402.738 462.23 402.289 433.619 420.203
C 415.036 431.838 400.673 449.455 393.552 470.241
C 391.191 477.135 390.424 484.057 388.959 491.115 Z"
opacity="1" fill="rgb(78,10,137)" fill-rule="evenodd" stroke="white" stroke-width="6"/>
<path d="
M 334.932 331.603
C 335.918 326.384 337.303 321.902 340.884 317.809
C 350.997 306.245 370.552 306.631 378.978 320.12
C 383.012 326.576 384.764 335.031 381.412 342.196
C 380.737 343.638 379.836 346.073 378.504 346.987
C 375.541 345.52 373.696 342.207 370.434 341.178
C 366.437 339.916 361.867 344.302 363.281 348.386
C 364.411 351.65 368.272 352.993 370.337 355.469
C 367.622 358.938 360.483 359.393 356.513 358.975
C 343.07 357.559 333.651 344.819 334.932 331.603 Z"
opacity="1" fill="rgb(206,10,219)" fill-rule="evenodd" stroke="white" stroke-width="6"/>
<path d="
M 417.419 508.572
C 418.228 506.037 419.247 503.686 421.086 501.7
C 425.529 496.903 433.28 495.789 438.899 499.113
C 440.856 500.271 442.356 502.191 443.934 503.794
C 447.269 507.184 450.488 510.684 453.802 514.093
C 455.847 516.197 457.985 518.205 460.005 520.333
C 460.558 520.917 461.476 522.299 462.294 522.385
C 466.201 519.277 469.588 514.978 473.056 511.376
C 479.811 504.359 486.473 497.254 493.32 490.325
C 500.062 483.502 506.812 476.679 513.493 469.796
C 516.841 466.345 520.248 461.841 525.001 460.339
C 535.579 456.997 546.756 466.912 543.771 477.821
C 542.838 481.229 540.253 483.7 537.901 486.184
C 533.491 490.84 528.961 495.378 524.474 499.96
C 512.727 511.956 500.923 523.981 489.549 536.329
C 486.199 539.965 482.72 543.483 479.43 547.172
C 476.541 550.412 473.583 553.999 469.773 556.192
C 465.361 558.731 459.609 558.872 455.121 556.437
C 450.29 553.816 446.679 548.819 443.041 544.838
C 437.792 539.095 432.28 533.524 426.796 527.999
C 421.107 522.267 415.427 517.488 417.419 508.572 Z"
opacity="1" fill="rgb(28,222,227)" fill-rule="evenodd" stroke="white" stroke-width="6"/>
<path d="
M 647.844 517.003
C 650.903 514.001 652.026 508.951 653.318 505.004
C 656.395 495.605 658.866 485.967 662.186 476.652
C 663.358 473.363 664.249 469.978 665.445 466.691
C 665.697 465.999 666.142 463.861 666.899 464.04
C 672.231 467.98 678.237 471.164 683.862 474.67
C 694.625 481.379 705.313 488.211 716.096 494.892
C 724.143 499.878 733.981 504.069 736.045 514.241
C 737.794 522.858 732.877 529.318 728.474 536.153
C 721.285 547.315 714.168 558.527 707.01 569.708
C 679.406 612.822 651.821 655.962 624.484 699.245
C 618.015 709.489 611.118 719.515 604.86 729.885
C 600.884 736.472 597.125 743.631 589.502 746.474
C 580.038 750.002 572.617 745.129 564.84 740.271
C 560.755 737.72 556.602 735.256 552.466 732.786
C 527.629 717.957 502.743 703.208 477.887 688.41
C 472.214 685.033 466.51 681.719 460.8 678.406
C 457.685 676.599 454.078 674.984 451.815 672.072
C 449.278 668.807 448.537 665.269 447.351 661.436
C 448.443 661.131 450.122 662.021 451.239 662.269
C 454.473 662.989 457.786 663.439 461.072 663.848
C 471.277 665.12 481.709 665.618 491.986 665.044
C 507.124 664.199 522.344 661.417 536.611 656.246
C 540.944 654.676 545.173 652.912 549.347 650.961
C 551.381 650.01 553.387 648.424 555.536 647.812
C 557.172 648.934 558.551 650.861 559.994 652.247
C 564.186 656.274 568.225 660.452 572.319 664.578
C 575.314 667.596 578.181 670.641 582.3 672.063
C 583.941 672.629 585.649 672.904 587.375 673.003
C 597.197 673.569 603.07 667.207 609.779 661.073
C 612.567 658.525 615.483 656.114 618.275 653.567
C 624.119 648.233 630.277 642.915 629.755 634.219
C 629.263 626.04 622.413 619.629 617.354 613.773
C 615.816 611.991 612.544 609.39 611.908 607.123
C 612.415 605.626 613.718 604.323 614.637 603.051
C 616.256 600.808 617.798 598.506 619.365 596.227
C 623.866 589.678 627.701 582.832 631.284 575.746
C 638.155 562.156 642.731 547.34 645.628 532.427
C 646.621 527.311 646.937 522.116 647.844 517.003 Z
M 654.835 527.023
C 653.609 530.691 656.747 533.172 659.552 534.763
C 667.415 539.221 674.566 544.837 682.327 549.433
C 684.74 550.862 688.854 550.78 690.103 547.743
C 691.714 543.825 688.407 541.234 685.533 539.37
C 680.158 535.884 674.708 532.513 669.304 529.072
C 666.883 527.53 664.518 525.621 661.953 524.338
C 659.261 522.992 655.858 523.966 654.835 527.023 Z
M 661.873 509.537
C 660.373 513.703 664.817 515.966 667.652 517.841
C 675.923 523.306 684.327 528.794 692.788 533.958
C 695.335 535.512 699.29 535.408 700.638 532.245
C 702.411 528.085 697.998 525.497 695.123 523.632
C 689.648 520.08 684.134 516.573 678.623 513.077
C 675.512 511.103 672.541 508.719 669.28 507.009
C 666.531 505.568 663.006 506.392 661.873 509.537 Z"
opacity="1" fill="rgb(20,6,79)" fill-rule="evenodd" stroke="white" stroke-width="6"/>
<path d="
M 666.899 464.04
C 666.142 463.861 665.697 465.999 665.445 466.691
C 664.249 469.978 663.358 473.363 662.186 476.652
C 658.866 485.967 656.395 495.605 653.318 505.004
C 652.026 508.951 650.903 514.001 647.844 517.003
C 648.853 507.389 648.504 497.382 647.771 487.766
C 646.654 473.136 644.027 458.228 638.992 444.399
C 622.412 398.858 585.845 362.037 540.639 344.754
C 528.286 340.032 514.588 336.37 501.351 335.416
C 501.057 334.212 502.815 331.145 503.24 329.905
C 504.915 325.019 506.563 320.126 508.146 315.209
C 512.61 301.344 516.4 287.276 520.463 273.296
C 521.372 270.167 521.821 266.913 523.111 263.9
C 525.242 258.919 529.866 254.583 535.036 252.907
C 542.116 250.612 548.577 252.892 555.32 255.042
C 562.218 257.242 569.283 258.975 576.21 261.096
C 606.231 270.287 636.553 278.485 666.618 287.533
C 673.989 289.751 681.391 291.882 688.778 294.049
C 694.196 295.639 699.526 296.841 703.633 301.028
C 704.908 302.328 706.078 303.854 706.926 305.462
C 712.537 316.105 706.555 326.853 703.767 337.433
C 701.069 347.667 697.79 357.781 694.835 367.945
C 688.847 388.539 682.884 409.143 676.667 429.668
C 674.124 438.065 671.612 446.475 669.122 454.89
C 668.504 456.976 667.84 459.048 667.227 461.136
C 666.928 462.153 666.389 463.02 666.899 464.04 Z
M 534.441 307.576
C 532.759 312.81 538.027 314.256 541.735 315.477
C 552.055 318.877 562.388 322.231 572.678 325.725
C 576.208 326.923 582.675 330.017 584.608 324.719
C 586.545 319.413 581.032 317.714 577.277 316.399
C 566.881 312.756 556.369 309.422 545.926 305.912
C 542.104 304.628 536.209 302.074 534.441 307.576 Z
M 595.987 341.624
C 595.542 346.868 596.196 352.239 598.102 357.154
C 601.517 365.962 607.991 374.284 616.665 378.441
C 630.852 385.24 648.762 382.314 659.798 370.988
C 663.423 367.267 666.028 362.622 667.801 357.771
C 668.889 354.796 669.788 351.635 670.07 348.468
C 670.528 343.309 669.768 337.808 668.19 332.916
C 667.905 332.032 668.017 331.064 667.689 330.2
C 661.031 312.649 641.297 303.576 623.529 307.935
C 619.162 309.007 614.903 311.402 611.259 313.992
C 606.946 317.057 603.437 321.119 600.712 325.633
C 597.842 330.386 596.453 336.141 595.987 341.624 Z"
opacity="1" fill="rgb(26,216,223)" fill-rule="evenodd" stroke="white" stroke-width="6"/>
<path d="
M 607.46 340.091
C 609.171 333.286 612.332 326.716 618.397 322.665
C 628.129 316.164 641.353 316.655 650.132 324.635
C 652.092 326.417 654.022 328.517 655.07 330.984
C 654.711 331.659 653.792 331.963 653.148 332.325
C 651.642 333.171 650.231 334.105 648.814 335.099
C 644.36 338.225 639.966 341.466 635.586 344.695
C 634.072 345.811 631.811 348.201 629.959 348.535
C 628.489 346.503 626.948 344.542 625.612 342.413
C 624.645 340.873 623.596 338.933 621.892 338.084
C 619.398 336.841 616.082 339.33 615.808 341.87
C 615.601 343.78 617.037 345.281 618.099 346.705
C 619.939 349.172 621.87 351.677 623.448 354.323
C 624.826 356.634 625.522 358.88 628.637 359.122
C 631.59 359.353 634.713 356.131 636.968 354.538
C 643.889 349.649 650.744 344.672 657.619 339.725
C 658.825 341.466 658.771 344.614 658.784 346.648
C 658.838 355.133 653.489 362.672 646.655 367.21
C 636.991 373.626 622.975 371.618 614.879 363.469
C 608.955 357.506 606.013 348.389 607.46 340.091 Z"
opacity="1" fill="rgb(26,214,222)" fill-rule="evenodd" stroke="white" stroke-width="6"/>

</svg>